<svg width="150" height="26" viewBox="0 0 150 26" fill="none" xmlns="http://www.w3.org/2000/svg">
<path d="M6.36172 3.04944C9.5163 3.04944 11.9348 3.62778 13.6698 4.73188C15.3523 5.83598 16.1935 7.67615 16.1935 10.1998C16.1935 12.776 15.3523 14.6162 13.6172 15.7729C11.8822 16.9296 9.46372 17.4553 6.25657 17.4553H4.78444V24.6057H0V3.62778C1.05152 3.41747 2.15563 3.25974 3.3123 3.20717C4.46898 3.10201 5.46793 3.04944 6.36172 3.04944ZM6.67718 7.15039C6.30915 7.15039 5.99369 7.15039 5.62566 7.20296C5.3102 7.20296 4.99474 7.25554 4.73186 7.25554V13.407H6.25657C7.88643 13.407 9.14826 13.1967 9.98948 12.7235C10.8307 12.2503 11.2513 11.4091 11.2513 10.1998C11.2513 9.62147 11.1462 9.09571 10.9359 8.72767C10.7256 8.35964 10.4101 8.04418 10.0421 7.7813C9.62145 7.571 9.14826 7.36069 8.56993 7.30811C7.99159 7.20296 7.36067 7.15039 6.67718 7.15039Z" fill="#0033A0"/>
<path d="M28.8118 12.5132C28.3912 12.408 27.918 12.3029 27.3923 12.1977C26.8665 12.0926 26.2356 12.04 25.6047 12.04C25.3418 12.04 24.9737 12.04 24.5531 12.0926C24.1325 12.1451 23.8696 12.1977 23.6593 12.2503V24.6057H19.0852V9.30603C19.9264 9.04315 20.8728 8.72769 21.9769 8.51739C23.081 8.25451 24.3428 8.14935 25.7098 8.14935C25.9727 8.14935 26.2356 8.14935 26.6036 8.20193C26.9716 8.25451 27.2871 8.25451 27.6551 8.30708C28.0232 8.35966 28.3386 8.41223 28.7067 8.46481C29.0747 8.51739 29.3376 8.62254 29.6005 8.72769L28.8118 12.5132Z" fill="#0033A0"/>
<path d="M46.5301 16.509C46.5301 17.7708 46.3198 18.9275 45.9518 19.979C45.5838 21.0305 45.058 21.9243 44.3745 22.6604C43.691 23.3965 42.8498 23.9748 41.9034 24.3954C40.957 24.816 39.8529 25.0263 38.6437 25.0263C37.4344 25.0263 36.3829 24.816 35.384 24.3954C34.4376 23.9748 33.5964 23.3965 32.8603 22.6604C32.1768 21.9243 31.5985 21.0305 31.2304 19.979C30.8624 18.9275 30.6521 17.7708 30.6521 16.509C30.6521 15.2472 30.8624 14.0905 31.2304 13.039C31.651 11.9874 32.1768 11.0936 32.8603 10.3576C33.5438 9.6215 34.385 9.04316 35.384 8.62255C36.3303 8.20194 37.4344 7.99164 38.5385 7.99164C39.6952 7.99164 40.7467 8.20194 41.7457 8.62255C42.6921 9.04316 43.5333 9.6215 44.2693 10.3576C44.9528 11.0936 45.5312 11.9874 45.8992 13.039C46.3198 14.0379 46.5301 15.1946 46.5301 16.509ZM41.8508 16.509C41.8508 15.0894 41.588 13.9853 41.0096 13.1967C40.4313 12.408 39.6426 11.9874 38.5911 11.9874C37.5396 11.9874 36.7509 12.408 36.1726 13.1967C35.5943 13.9853 35.3314 15.142 35.3314 16.509C35.3314 17.9285 35.5943 19.0326 36.1726 19.8739C36.7509 20.7151 37.5396 21.1357 38.5911 21.1357C39.6426 21.1357 40.4313 20.7151 41.0096 19.8739C41.588 19.0326 41.8508 17.876 41.8508 16.509Z" fill="#0033A0"/>
<path d="M49.5793 4.41643L54.1535 3.68036V8.4648H59.6214V12.2503H54.1535V17.9285C54.1535 18.8749 54.3112 19.6635 54.6792 20.2419C54.9947 20.8202 55.6782 21.0831 56.7297 21.0831C57.2029 21.0831 57.7287 21.0305 58.2544 20.9254C58.7802 20.8202 59.2534 20.7151 59.674 20.5573L60.3049 24.1325C59.7266 24.3428 59.1482 24.5531 58.4647 24.7109C57.7812 24.8686 56.94 24.9737 55.9936 24.9737C54.7318 24.9737 53.7329 24.816 52.8916 24.448C52.0504 24.1325 51.4195 23.6593 50.9463 23.0284C50.4731 22.3975 50.1051 21.714 49.8948 20.8202C49.6845 19.979 49.5793 18.98 49.5793 17.9811V4.41643Z" fill="#0033A0"/>
<path d="M61.6719 16.6667C61.6719 15.2472 61.8822 13.9853 62.3554 12.8812C62.776 11.8297 63.3543 10.9359 64.0904 10.1998C64.8264 9.46377 65.6151 8.93801 66.5615 8.56998C67.5078 8.20194 68.4542 7.99164 69.4006 7.99164C71.7139 7.99164 73.5015 8.67513 74.8159 10.0947C76.1303 11.5142 76.8138 13.5647 76.8138 16.2987C76.8138 16.5616 76.8138 16.877 76.7613 17.1925C76.7613 17.5079 76.7087 17.7708 76.7087 18.0337H66.3512C66.4563 18.9801 66.8769 19.7161 67.6656 20.2945C68.4542 20.8728 69.5057 21.1357 70.7676 21.1357C71.6088 21.1357 72.45 21.0831 73.2386 20.9254C74.0273 20.7677 74.7108 20.5574 75.2365 20.3471L75.8675 24.08C75.6046 24.1851 75.2891 24.3428 74.8685 24.448C74.4479 24.5532 74.0273 24.6583 73.5015 24.7635C72.9758 24.8686 72.45 24.9212 71.8717 24.9738C71.2933 25.0263 70.715 25.0789 70.1366 25.0789C68.6645 25.0789 67.4027 24.8686 66.3512 24.448C65.2996 24.0274 64.4058 23.4491 63.6698 22.6604C62.9863 21.9243 62.4605 21.0305 62.0925 19.979C61.8296 18.9275 61.6719 17.8234 61.6719 16.6667ZM72.3974 14.8791C72.3974 14.5111 72.2923 14.0905 72.1871 13.7224C72.082 13.3544 71.9242 13.039 71.6614 12.7235C71.4511 12.4606 71.1356 12.1977 70.7676 12.04C70.3995 11.8297 69.9789 11.7771 69.4532 11.7771C68.9274 11.7771 68.5068 11.8823 68.1388 12.04C67.7707 12.1977 67.4553 12.4606 67.245 12.7235C66.9821 12.9864 66.8243 13.3544 66.6666 13.7224C66.5089 14.0905 66.4563 14.5111 66.3512 14.8791H72.3974Z" fill="#0033A0"/>
<path d="M79.2324 16.509C79.2324 15.3523 79.4427 14.2482 79.8108 13.1967C80.1788 12.1452 80.7571 11.2514 81.4406 10.5153C82.1767 9.72665 83.0179 9.14831 84.0694 8.67513C85.0684 8.20194 86.2776 7.99164 87.5395 7.99164C88.3807 7.99164 89.1693 8.04421 89.9054 8.20194C90.6415 8.35967 91.325 8.56998 92.0085 8.88543L91.0621 12.5658C90.6415 12.408 90.1683 12.2503 89.6425 12.1452C89.1168 12.04 88.5384 11.9349 87.9075 11.9349C86.5405 11.9349 85.5416 12.3555 84.9107 13.1967C84.2272 14.0379 83.9117 15.142 83.9117 16.509C83.9117 17.9811 84.2272 19.0852 84.8581 19.8739C85.489 20.6625 86.5931 21.0831 88.1178 21.0831C88.6436 21.0831 89.2745 21.0305 89.9054 20.9254C90.5363 20.8202 91.1147 20.6625 91.6404 20.4522L92.2713 24.1851C91.7456 24.3954 91.0621 24.6057 90.2734 24.7635C89.4848 24.9212 88.591 25.0263 87.6446 25.0263C86.1725 25.0263 84.9107 24.816 83.8591 24.3428C82.8076 23.9222 81.9138 23.2913 81.2303 22.5553C80.5468 21.8192 80.0211 20.9254 79.7056 19.8739C79.3902 18.8223 79.2324 17.7182 79.2324 16.509Z" fill="#0033A0"/>
<path d="M93.4805 16.509C93.4805 15.3523 93.6908 14.2482 94.0588 13.1967C94.4268 12.1452 95.0052 11.2514 95.6887 10.5153C96.4247 9.72665 97.266 9.14831 98.3175 8.67513C99.3164 8.20194 100.526 7.99164 101.788 7.99164C102.629 7.99164 103.417 8.04421 104.153 8.20194C104.89 8.35967 105.573 8.56998 106.256 8.88543L105.31 12.5658C104.89 12.408 104.416 12.2503 103.891 12.1452C103.365 12.04 102.786 11.9349 102.156 11.9349C100.789 11.9349 99.7896 12.3555 99.1587 13.1967C98.4752 14.0379 98.1598 15.142 98.1598 16.509C98.1598 17.9811 98.4752 19.0852 99.1061 19.8739C99.737 20.6625 100.841 21.0831 102.366 21.0831C102.944 21.0831 103.523 21.0305 104.153 20.9254C104.784 20.8202 105.363 20.6625 105.888 20.4522L106.519 24.1851C105.994 24.3954 105.31 24.6057 104.521 24.7635C103.733 24.9212 102.839 25.0263 101.893 25.0263C100.421 25.0263 99.1587 24.816 98.1072 24.3428C97.0557 23.9222 96.1619 23.2913 95.4784 22.5553C94.7949 21.8192 94.2691 20.9254 93.9537 19.8739C93.6382 18.8223 93.4805 17.7182 93.4805 16.509Z" fill="#0033A0"/>
<path d="M114.248 3.78554C114.248 4.62676 113.985 5.31025 113.46 5.78344C112.934 6.25662 112.303 6.5195 111.567 6.5195C110.831 6.5195 110.2 6.25662 109.674 5.78344C109.148 5.31025 108.885 4.62676 108.885 3.78554C108.885 2.94432 109.148 2.26083 109.674 1.78764C110.2 1.31446 110.831 1.05157 111.567 1.05157C112.303 1.05157 112.934 1.31446 113.46 1.78764C113.985 2.26083 114.248 2.94432 114.248 3.78554ZM113.828 24.6057H109.254V8.46482H113.828V24.6057Z" fill="#0033A0"/>
<path d="M132.913 16.5089C132.913 17.7708 132.702 18.9274 132.387 19.979C132.019 21.0305 131.493 21.9243 130.81 22.6604C130.126 23.3964 129.285 23.9748 128.339 24.3954C127.392 24.816 126.288 25.0263 125.079 25.0263C123.87 25.0263 122.818 24.816 121.819 24.3954C120.873 23.9748 120.032 23.3964 119.348 22.6604C118.665 21.9243 118.086 21.0305 117.718 19.979C117.35 18.9274 117.14 17.7708 117.14 16.5089C117.14 15.2471 117.35 14.0904 117.718 13.0389C118.139 11.9874 118.665 11.0936 119.348 10.3575C120.032 9.62145 120.873 9.04311 121.872 8.6225C122.818 8.20189 123.922 7.99159 125.026 7.99159C126.183 7.99159 127.235 8.20189 128.233 8.6225C129.18 9.04311 130.021 9.62145 130.705 10.3575C131.388 11.0936 131.914 11.9874 132.334 13.0389C132.702 14.0379 132.913 15.1945 132.913 16.5089ZM128.759 2.62881L123.712 6.88749L121.609 4.99474L125.92 0L128.759 2.62881ZM128.233 16.5089C128.233 15.0894 127.971 13.9853 127.392 13.1966C126.814 12.408 126.025 11.9874 124.974 11.9874C123.922 11.9874 123.134 12.408 122.555 13.1966C121.977 13.9853 121.714 15.142 121.714 16.5089C121.714 17.9285 121.977 19.0326 122.555 19.8738C123.134 20.715 123.922 21.1356 124.974 21.1356C126.025 21.1356 126.814 20.715 127.392 19.8738C127.971 19.0326 128.233 17.8759 128.233 16.5089Z" fill="#0033A0"/>
<path d="M136.12 8.99056C136.909 8.78026 137.908 8.56995 139.117 8.35965C140.326 8.14934 141.64 8.04419 142.955 8.04419C144.322 8.04419 145.479 8.20192 146.372 8.56995C147.266 8.93799 148.002 9.41117 148.528 10.0947C149.054 10.7782 149.422 11.5142 149.685 12.408C149.895 13.3018 150 14.3008 150 15.4049V24.5531H145.426V16.0358C145.426 14.5636 145.216 13.5121 144.848 12.8812C144.48 12.2503 143.744 11.9348 142.692 11.9348C142.377 11.9348 142.009 11.9348 141.64 11.9874C141.272 12.04 140.957 12.04 140.642 12.0926V24.5531H136.067V8.99056H136.12Z" fill="#0033A0"/>
</svg>
